<?xml version="1.0" standalone="no"?>
<!DOCTYPE svg PUBLIC "-//W3C//DTD SVG 20010904//EN"
 "http://www.w3.org/TR/2001/REC-SVG-20010904/DTD/svg10.dtd">
<svg version="1.0" xmlns="http://www.w3.org/2000/svg"
 width="387.000000pt" height="130.000000pt" viewBox="0 0 387.000000 130.000000"
 preserveAspectRatio="xMidYMid meet">

<g transform="translate(0.000000,130.000000) scale(0.100000,-0.100000)"
fill="#000000" stroke="none">
<path d="M473 1283 c15 -2 39 -2 55 0 15 2 2 4 -28 4 -30 0 -43 -2 -27 -4z"/>
<path d="M403 1273 c9 -2 23 -2 30 0 6 3 -1 5 -18 5 -16 0 -22 -2 -12 -5z"/>
<path d="M620 1265 c30 -7 57 -12 58 -10 6 5 -71 25 -93 24 -11 0 5 -7 35 -14z"/>
<path d="M340 1260 c-18 -12 -2 -12 25 0 13 6 15 9 5 9 -8 0 -22 -4 -30 -9z"/>
<path d="M251 1219 c-56 -33 -143 -114 -162 -152 -6 -12 2 -6 17 13 47 59 102
106 162 138 31 17 53 32 47 32 -5 0 -34 -14 -64 -31z"/>
<path d="M691 1246 c2 -2 15 -9 29 -15 24 -11 24 -11 6 3 -16 13 -49 24 -35
12z"/>
<path d="M3070 795 l0 -455 65 0 65 0 0 455 0 455 -65 0 -65 0 0 -455z m120 0
l0 -445 -55 0 -55 0 0 445 0 445 55 0 55 0 0 -445z"/>
<path d="M783 1190 l38 -33 -37 -38 c-31 -32 -40 -36 -53 -26 -14 11 -14 10
-2 -6 13 -17 17 -15 58 24 l43 43 -23 24 c-12 13 -31 28 -42 34 -11 6 -3 -4
18 -22z"/>
<path d="M400 1161 c-44 -14 -104 -48 -140 -81 l-35 -32 40 30 c56 41 102 64
160 78 28 7 39 12 25 12 -14 0 -36 -3 -50 -7z"/>
<path d="M543 1163 c9 -2 23 -2 30 0 6 3 -1 5 -18 5 -16 0 -22 -2 -12 -5z"/>
<path d="M600 1153 c8 -3 30 -12 48 -19 17 -7 32 -11 32 -8 0 7 -67 34 -82 33
-8 0 -8 -3 2 -6z"/>
<path d="M60 1019 c-7 -11 -10 -23 -7 -25 2 -2 9 7 15 21 14 30 7 33 -8 4z"/>
<path d="M209 1023 c-13 -16 -12 -17 4 -4 16 13 21 21 13 21 -2 0 -10 -8 -17
-17z"/>
<path d="M169 955 c-11 -25 -19 -50 -17 -55 2 -4 13 16 24 46 26 66 21 72 -7
9z"/>
<path d="M36 965 c-3 -9 -6 -22 -5 -28 0 -7 5 -1 10 12 5 13 8 26 5 28 -2 2
-6 -3 -10 -12z"/>
<path d="M1248 932 c-10 -4 27 -7 82 -7 55 0 92 3 82 7 -22 9 -142 9 -164 0z"/>
<path d="M1977 933 c18 -2 50 -2 70 0 21 2 7 4 -32 4 -38 0 -55 -2 -38 -4z"/>
<path d="M2584 924 c-72 -26 -184 -143 -184 -193 0 -8 12 8 26 37 32 64 100
125 161 146 85 29 181 16 237 -32 20 -16 20 -16 6 2 -40 51 -160 70 -246 40z"/>
<path d="M3456 924 c-22 -8 -55 -26 -73 -40 -36 -27 -93 -99 -93 -117 0 -6 13
10 29 35 53 83 114 117 231 128 l75 7 -65 1 c-36 0 -83 -6 -104 -14z"/>
<path d="M1883 915 c-18 -8 -33 -16 -33 -19 0 -3 15 1 33 8 17 7 39 16 47 19
13 5 13 5 0 6 -8 0 -30 -6 -47 -14z"/>
<path d="M2105 920 c27 -12 43 -12 25 0 -8 5 -22 9 -30 9 -10 0 -8 -3 5 -9z"/>
<path d="M22 900 c0 -14 2 -19 5 -12 2 6 2 18 0 25 -3 6 -5 1 -5 -13z"/>
<path d="M1159 892 c-24 -16 -53 -40 -64 -53 -17 -21 -16 -21 10 3 17 15 50
38 75 52 25 14 40 26 34 26 -5 0 -30 -13 -55 -28z"/>
<path d="M1441 916 c10 -9 69 -36 69 -32 0 6 -55 36 -66 36 -4 0 -5 -2 -3 -4z"/>
<path d="M2861 898 c1 -17 2 -19 6 -5 3 13 15 17 54 17 l49 0 3 -307 2 -308 3
313 2 312 -60 0 c-56 0 -60 -2 -59 -22z"/>
<path d="M3660 916 c0 -2 7 -7 16 -10 8 -3 12 -2 9 4 -6 10 -25 14 -25 6z"/>
<path d="M2170 898 c3 -2 28 -24 55 -48 48 -42 48 -42 15 -6 -19 21 -44 42
-55 48 -11 6 -18 9 -15 6z"/>
<path d="M3721 877 c15 -13 41 -43 58 -67 17 -24 31 -39 31 -34 -1 16 -56 83
-86 105 l-29 21 26 -25z"/>
<path d="M1809 870 c-15 -11 -34 -32 -43 -47 l-17 -28 21 25 c12 14 34 35 48
47 33 28 26 29 -9 3z"/>
<path d="M143 805 c0 -44 2 -61 4 -37 2 23 2 59 0 80 -2 20 -4 1 -4 -43z"/>
<path d="M1520 877 c0 -2 15 -16 33 -33 l32 -29 -29 33 c-28 30 -36 37 -36 29z"/>
<path d="M13 810 c0 -36 2 -50 4 -32 2 17 2 47 0 65 -2 17 -4 3 -4 -33z"/>
<path d="M510 780 l0 -60 158 2 157 2 -152 3 -153 4 0 49 0 50 209 0 c191 0
210 -2 214 -17 4 -14 5 -12 6 5 l1 22 -220 0 -220 0 0 -60z"/>
<path d="M1287 832 c-9 -4 10 -7 43 -7 33 0 52 3 43 7 -10 3 -29 7 -43 7 -14
0 -33 -4 -43 -7z"/>
<path d="M2003 833 c9 -2 23 -2 30 0 6 3 -1 5 -18 5 -16 0 -22 -2 -12 -5z"/>
<path d="M2683 833 c9 -2 23 -2 30 0 6 3 -1 5 -18 5 -16 0 -22 -2 -12 -5z"/>
<path d="M3574 829 c27 -4 63 -18 80 -30 24 -17 27 -18 16 -4 -20 25 -72 45
-112 44 -27 -1 -24 -3 16 -10z"/>
<path d="M1935 818 c-50 -27 -106 -97 -105 -130 1 -7 8 3 16 22 21 48 51 79
99 101 22 10 33 19 25 18 -8 0 -24 -5 -35 -11z"/>
<path d="M2086 811 c22 -10 53 -34 68 -52 15 -19 23 -25 18 -14 -19 37 -83 85
-114 85 -7 0 5 -9 28 -19z"/>
<path d="M2615 818 c-30 -16 -66 -50 -77 -73 -5 -11 3 -5 18 14 15 18 46 42
68 52 23 10 34 19 26 18 -8 0 -24 -5 -35 -11z"/>
<path d="M2755 816 c31 -14 74 -56 93 -91 7 -12 12 -15 12 -6 0 21 -94 111
-116 111 -13 -1 -10 -5 11 -14z"/>
<path d="M3469 807 c-37 -25 -79 -81 -79 -106 0 -9 9 2 19 24 20 43 40 64 86
88 17 9 25 16 19 17 -6 0 -26 -10 -45 -23z"/>
<path d="M1206 786 c-44 -41 -66 -91 -66 -151 0 -41 22 -115 34 -115 3 0 -2
16 -10 35 -34 82 -4 194 64 240 20 14 31 25 25 25 -6 0 -28 -15 -47 -34z"/>
<path d="M1432 795 c100 -68 103 -240 7 -319 -19 -15 -25 -23 -14 -18 83 42
120 174 74 269 -19 40 -73 93 -95 93 -5 0 8 -11 28 -25z"/>
<path d="M1055 779 c-9 -17 -15 -33 -13 -35 3 -2 12 12 21 31 21 43 13 47 -8
4z"/>
<path d="M2281 780 c14 -31 19 -36 19 -24 0 6 -7 19 -16 30 -14 18 -14 18 -3
-6z"/>
<path d="M952 765 c0 -16 2 -22 5 -12 2 9 2 23 0 30 -3 6 -5 -1 -5 -18z"/>
<path d="M1730 769 c-6 -11 -10 -25 -8 -30 2 -5 8 4 15 21 13 34 9 40 -7 9z"/>
<path d="M1600 779 c0 -4 7 -22 15 -40 8 -19 14 -27 14 -19 0 14 -28 72 -29
59z"/>
<path d="M3680 761 c0 -4 -21 -16 -46 -26 -25 -9 -43 -19 -41 -21 7 -8 97 35
97 46 0 5 -2 10 -5 10 -3 0 -5 -4 -5 -9z"/>
<path d="M3815 742 c6 -20 0 -26 -47 -47 -29 -14 -42 -22 -29 -19 13 3 41 14
61 23 37 16 37 18 24 41 -14 24 -15 24 -9 2z"/>
<path d="M3276 728 c-3 -13 -5 -32 -5 -43 1 -11 5 -2 10 19 10 42 6 62 -5 24z"/>
<path d="M26 695 c3 -22 12 -51 21 -65 9 -15 12 -17 7 -5 -3 11 -13 40 -20 65
l-14 45 6 -40z"/>
<path d="M942 700 c0 -19 2 -27 5 -17 2 9 2 25 0 35 -3 9 -5 1 -5 -18z"/>
<path d="M1026 708 c-3 -13 -5 -50 -4 -83 1 -59 1 -58 8 20 7 84 6 100 -4 63z"/>
<path d="M151 710 c0 -8 4 -22 9 -30 12 -18 12 -2 0 25 -6 13 -9 15 -9 5z"/>
<path d="M1711 704 c0 -11 3 -14 6 -6 3 7 2 16 -1 19 -3 4 -6 -2 -5 -13z"/>
<path d="M2186 695 c8 -37 14 -45 14 -19 0 10 -5 26 -10 34 -8 11 -9 7 -4 -15z"/>
<path d="M2516 705 c-3 -9 -6 -24 -5 -33 0 -9 5 -4 10 12 9 32 6 48 -5 21z"/>
<path d="M821 690 c-2 -45 -47 -125 -92 -164 -24 -21 -35 -34 -23 -28 57 30
133 153 121 198 -3 14 -5 13 -6 -6z"/>
<path d="M2312 680 c0 -19 2 -27 5 -17 2 9 2 25 0 35 -3 9 -5 1 -5 -18z"/>
<path d="M2392 690 c0 -14 2 -19 5 -12 2 6 2 18 0 25 -3 6 -5 1 -5 -13z"/>
<path d="M3550 700 c-8 -5 -10 -10 -5 -10 6 0 17 5 25 10 8 5 11 10 5 10 -5 0
-17 -5 -25 -10z"/>
<path d="M1632 639 c-4 -119 -48 -202 -141 -260 -25 -16 -41 -29 -37 -29 19 0
78 44 115 86 51 59 73 124 68 206 l-3 63 -2 -66z"/>
<path d="M2861 684 c0 -11 3 -14 6 -6 3 7 2 16 -1 19 -3 4 -6 -2 -5 -13z"/>
<path d="M3500 680 c-8 -5 -10 -10 -5 -10 6 0 17 5 25 10 8 5 11 10 5 10 -5 0
-17 -5 -25 -10z"/>
<path d="M1703 635 c0 -27 2 -38 4 -22 2 15 2 37 0 50 -2 12 -4 0 -4 -28z"/>
<path d="M3381 663 c0 -12 3 -24 8 -28 10 -6 95 24 88 31 -2 3 -20 -3 -40 -11
-46 -19 -45 -19 -50 8 -4 22 -4 22 -6 0z"/>
<path d="M1821 634 c0 -21 4 -48 9 -59 5 -12 6 1 3 35 -7 66 -13 79 -12 24z"/>
<path d="M3645 645 c-27 -13 -45 -23 -40 -24 6 0 33 11 60 24 28 13 46 23 40
24 -5 0 -32 -11 -60 -24z"/>
<path d="M170 651 c0 -6 4 -13 10 -16 6 -3 7 1 4 9 -7 18 -14 21 -14 7z"/>
<path d="M931 645 c-2 -31 -56 -137 -87 -170 -48 -51 -101 -87 -167 -112 -34
-13 -48 -21 -32 -18 55 11 131 54 184 105 55 53 116 165 108 197 -4 16 -5 15
-6 -2z"/>
<path d="M2872 635 c0 -16 2 -22 5 -12 2 9 2 23 0 30 -3 6 -5 -1 -5 -18z"/>
<path d="M2501 634 c0 -11 3 -14 6 -6 3 7 2 16 -1 19 -3 4 -6 -2 -5 -13z"/>
<path d="M190 614 c0 -13 98 -107 125 -120 16 -8 21 -9 10 -2 -11 7 -46 39
-77 70 -32 32 -58 55 -58 52z"/>
<path d="M2312 590 c-3 -48 -42 -128 -83 -169 -18 -19 -56 -45 -84 -57 -27
-13 -44 -24 -37 -24 19 0 72 28 114 62 49 38 101 142 95 189 l-4 34 -1 -35z"/>
<path d="M3525 595 c-27 -13 -45 -23 -40 -24 6 0 33 11 60 24 28 13 46 23 40
24 -5 0 -32 -11 -60 -24z"/>
<path d="M2186 577 c-4 -22 -23 -56 -44 -80 l-36 -42 37 34 c36 34 63 89 54
114 -2 6 -7 -5 -11 -26z"/>
<path d="M2512 590 c0 -14 2 -19 5 -12 2 6 2 18 0 25 -3 6 -5 1 -5 -13z"/>
<path d="M76 568 c23 -44 115 -139 156 -161 32 -17 32 -17 8 0 -53 38 -123
109 -147 150 -29 50 -41 58 -17 11z"/>
<path d="M2391 580 c-2 -58 71 -171 131 -203 31 -17 32 -17 8 0 -64 46 -111
115 -129 190 -7 28 -9 32 -10 13z"/>
<path d="M3271 584 c-1 -21 19 -88 24 -82 2 2 -3 26 -10 53 -8 28 -14 41 -14
29z"/>
<path d="M2861 583 c-1 -6 -4 -20 -7 -30 -5 -17 -5 -17 6 0 6 10 9 23 6 30 -3
9 -5 9 -5 0z"/>
<path d="M1711 565 c-1 -49 73 -161 123 -186 11 -6 4 3 -16 20 -43 37 -76 87
-94 144 -7 23 -13 33 -13 22z"/>
<path d="M3440 560 c-8 -5 -10 -10 -5 -10 6 0 17 5 25 10 8 5 11 10 5 10 -5 0
-17 -5 -25 -10z"/>
<path d="M1031 550 c0 -8 4 -22 9 -30 12 -18 12 -2 0 25 -6 13 -9 15 -9 5z"/>
<path d="M2520 553 c0 -21 73 -95 107 -110 37 -15 101 -17 123 -3 10 6 3 8
-22 3 -78 -12 -146 21 -189 92 -11 16 -19 24 -19 18z"/>
<path d="M3410 531 c0 -6 4 -13 10 -16 6 -3 7 1 4 9 -7 18 -14 21 -14 7z"/>
<path d="M2806 488 c-37 -39 -33 -44 7 -9 16 14 43 53 35 50 -2 0 -21 -19 -42
-41z"/>
<path d="M3712 508 c-7 -7 -12 -17 -12 -22 0 -6 7 -3 15 8 14 18 16 17 59 -10
l45 -29 -22 -24 c-12 -13 -42 -37 -66 -52 -25 -16 -40 -29 -34 -29 13 0 82 51
111 82 l23 25 -49 32 c-56 35 -54 35 -70 19z"/>
<path d="M1195 491 c19 -22 66 -51 82 -51 4 1 -5 8 -22 17 -16 8 -41 25 -55
37 l-25 21 20 -24z"/>
<path d="M1895 476 c17 -14 45 -31 64 -37 38 -13 117 -7 134 10 9 9 3 9 -21 0
-47 -16 -115 -6 -165 25 l-42 27 30 -25z"/>
<path d="M3439 486 c13 -16 51 -41 51 -33 0 2 -15 14 -32 27 -21 15 -28 17
-19 6z"/>
<path d="M660 480 c-9 -6 -10 -10 -3 -10 6 0 15 5 18 10 8 12 4 12 -15 0z"/>
<path d="M360 470 c8 -5 20 -10 25 -10 6 0 3 5 -5 10 -8 5 -19 10 -25 10 -5 0
-3 -5 5 -10z"/>
<path d="M1068 464 c16 -31 89 -94 128 -110 55 -23 53 -15 -3 12 -29 14 -71
46 -94 72 -23 26 -37 38 -31 26z"/>
<path d="M3662 463 c-12 -9 -48 -19 -80 -23 -53 -7 -54 -7 -14 -9 44 -1 104
18 116 38 9 14 6 13 -22 -6z"/>
<path d="M3329 443 c20 -30 56 -60 91 -77 8 -4 4 1 -10 11 -14 9 -43 35 -64
58 -34 35 -37 36 -17 8z"/>
<path d="M408 453 c7 -3 16 -2 19 1 4 3 -2 6 -13 5 -11 0 -14 -3 -6 -6z"/>
<path d="M588 453 c7 -3 16 -2 19 1 4 3 -2 6 -13 5 -11 0 -14 -3 -6 -6z"/>
<path d="M467 443 c18 -2 50 -2 70 0 21 2 7 4 -32 4 -38 0 -55 -2 -38 -4z"/>
<path d="M1308 433 c12 -2 32 -2 45 0 12 2 2 4 -23 4 -25 0 -35 -2 -22 -4z"/>
<path d="M2810 373 c-13 -10 -45 -23 -70 -29 -26 -7 -35 -13 -22 -13 26 -1 78
20 107 43 27 21 16 20 -15 -1z"/>
<path d="M2863 355 c0 -22 2 -30 4 -17 2 12 2 30 0 40 -3 9 -5 -1 -4 -23z"/>
<path d="M310 365 c14 -8 32 -14 40 -14 8 0 0 6 -19 14 -42 19 -54 19 -21 0z"/>
<path d="M1905 345 c17 -8 44 -14 60 -13 29 0 29 0 -5 7 -19 4 -46 11 -60 14
-20 6 -19 4 5 -8z"/>
<path d="M2570 350 c8 -5 20 -10 25 -10 6 0 3 5 -5 10 -8 5 -19 10 -25 10 -5
0 -3 -5 5 -10z"/>
<path d="M3465 345 c17 -8 44 -14 60 -13 29 0 29 0 -5 7 -19 4 -46 11 -60 14
-20 6 -19 4 5 -8z"/>
<path d="M385 340 c19 -8 93 -14 84 -6 -2 2 -26 6 -54 9 -32 4 -43 3 -30 -3z"/>
<path d="M558 333 c12 -2 30 -2 40 0 9 3 -1 5 -23 4 -22 0 -30 -2 -17 -4z"/>
<path d="M1263 333 c9 -2 23 -2 30 0 6 3 -1 5 -18 5 -16 0 -22 -2 -12 -5z"/>
<path d="M1373 333 c9 -2 23 -2 30 0 6 3 -1 5 -18 5 -16 0 -22 -2 -12 -5z"/>
<path d="M2053 333 c9 -2 23 -2 30 0 6 3 -1 5 -18 5 -16 0 -22 -2 -12 -5z"/>
<path d="M2623 333 c9 -2 23 -2 30 0 6 3 -1 5 -18 5 -16 0 -22 -2 -12 -5z"/>
<path d="M3613 333 c9 -2 23 -2 30 0 6 3 -1 5 -18 5 -16 0 -22 -2 -12 -5z"/>
<path d="M2852 290 c0 -14 2 -19 5 -12 2 6 2 18 0 25 -3 6 -5 1 -5 -13z"/>
<path d="M2962 270 c0 -14 2 -19 5 -12 2 6 2 18 0 25 -3 6 -5 1 -5 -13z"/>
<path d="M2452 239 l-43 -19 18 -30 c10 -17 33 -45 53 -63 l35 -32 -31 35
c-17 19 -38 46 -48 60 -16 25 -16 25 31 47 27 12 44 21 38 21 -5 1 -29 -8 -53
-19z"/>
<path d="M2529 244 c13 -26 77 -84 94 -84 7 0 -2 9 -19 19 -17 10 -43 34 -58
52 -15 19 -23 24 -17 13z"/>
<path d="M2836 243 c-6 -14 -5 -15 5 -6 7 7 10 15 7 18 -3 3 -9 -2 -12 -12z"/>
<path d="M2804 198 l-19 -23 23 19 c12 11 22 21 22 23 0 8 -8 2 -26 -19z"/>
<path d="M2915 161 c-21 -31 -47 -54 -84 -73 -29 -15 -47 -28 -39 -28 27 0
107 59 134 100 15 22 25 42 23 44 -2 2 -17 -17 -34 -43z"/>
<path d="M2690 160 l-55 -7 50 -1 c28 -1 57 3 65 8 8 5 11 9 5 8 -5 -1 -35 -4
-65 -8z"/>
<path d="M2520 95 c0 -11 85 -45 110 -44 18 1 15 3 -13 10 -21 5 -51 16 -67
24 -17 9 -30 13 -30 10z"/>
<path d="M2733 53 c9 -2 23 -2 30 0 6 3 -1 5 -18 5 -16 0 -22 -2 -12 -5z"/>
</g>
</svg>
