<?xml version="1.0"?>
<svg xmlns:rdf="http://www.w3.org/1999/02/22-rdf-syntax-ns#" xmlns="http://www.w3.org/2000/svg" xmlns:cc="http://creativecommons.org/ns#" xmlns:xlink="http://www.w3.org/1999/xlink" xmlns:dc="http://purl.org/dc/elements/1.1/" xmlns:svg="http://www.w3.org/2000/svg" id="svg5430" viewBox="0 0 1274 765.73" version="1.1">
  <defs id="defs3">
    <filter id="filter15841" height="1.2811" width="1.0763" y="-.14056" x="-.03814" color-interpolation-filters="sRGB">
      <feGaussianBlur id="feGaussianBlur15843" stdDeviation="8.6108122"/>
    </filter>
    <linearGradient id="linearGradient21617" y2="-1039.9" gradientUnits="userSpaceOnUse" y1="-1782.2" x2="-1318" x1="-1126.3">
      <stop id="stop14225" stop-color="#ff0" offset="0"/>
      <stop id="stop14227" stop-color="#ff0" stop-opacity="0" offset="1"/>
    </linearGradient>
    <linearGradient id="linearGradient17011" y2="-1314.9" xlink:href="#linearGradient13944" gradientUnits="userSpaceOnUse" x2="-413.34" gradientTransform="matrix(.53128 0 0 .61418 -1057.2 -660.62)" y1="-1790.9" x1="-516.05"/>
    <linearGradient id="linearGradient13944">
      <stop id="stop13946" stop-color="#fff" offset="0"/>
      <stop id="stop13948" stop-color="#fff" stop-opacity="0" offset="1"/>
    </linearGradient>
    <filter id="filter14070" height="1.5891" width="1.1322" y="-.29455" x="-.066122" color-interpolation-filters="sRGB">
      <feGaussianBlur id="feGaussianBlur14072" stdDeviation="10.145619"/>
    </filter>
    <linearGradient id="linearGradient21619" y2="-1234.3" xlink:href="#linearGradient13944" gradientUnits="userSpaceOnUse" x2="-1290.8" y1="-2038.9" x1="-1208.1"/>
    <radialGradient id="radialGradient17015" xlink:href="#linearGradient13944" gradientUnits="userSpaceOnUse" cy="-1397.9" cx="-520.11" gradientTransform="matrix(.71960 .54194 -.50324 .79255 -822.71 7.3839)" r="208.02"/>
    <linearGradient id="linearGradient6497" y2="-1314.9" xlink:href="#linearGradient13944" gradientUnits="userSpaceOnUse" x2="-413.34" gradientTransform="matrix(.61418 0 0 .61418 -650.26 709.67)" y1="-1790.9" x1="-516.05"/>
    <radialGradient id="radialGradient17021" gradientUnits="userSpaceOnUse" cy="-1362.3" cx="-608.19" gradientTransform="matrix(1.2704 1.2766 -.99723 1.177 -1140.5 944.88)" r="208.02">
      <stop id="stop13927" stop-color="#f60" offset="0"/>
      <stop id="stop13933" stop-color="#d45500" offset=".53562"/>
      <stop id="stop13929" stop-color="#520" offset="1"/>
    </radialGradient>
    <linearGradient id="linearGradient17029" y2="-1314.9" xlink:href="#linearGradient13944" gradientUnits="userSpaceOnUse" x2="-413.34" gradientTransform="matrix(.78772 0 0 .78772 -601.27 51.245)" y1="-1790.9" x1="-516.05"/>
    <linearGradient id="linearGradient17031" y2="385.38" gradientUnits="userSpaceOnUse" x2="-217.94" gradientTransform="matrix(2.0568 0 0 2.0568 65.76 -1872.1)" y1="291.44" x1="-226.08">
      <stop id="stop3467-7" stop-color="#a0892c" offset="0"/>
      <stop id="stop3511-4" stop-color="#28220b" offset=".20411"/>
      <stop id="stop3513-0" stop-color="#d3bc5f" offset=".22671"/>
      <stop id="stop3474-9" stop-color="#d2bb5e" stop-opacity=".41961" offset=".72643"/>
      <stop id="stop3476-4" stop-color="#504416" offset=".85629"/>
      <stop id="stop3469-8" stop-color="#504416" offset="1"/>
    </linearGradient>
    <linearGradient id="linearGradient17033" y2="32.115" gradientUnits="userSpaceOnUse" y1="45.07" x2="-239.55" x1="-324.85">
      <stop id="stop3482-2" stop-color="#504416" offset="0"/>
      <stop id="stop3488-4" stop-color="#e9ddaf" offset=".47144"/>
      <stop id="stop3484-5" stop-color="#28220b" offset="1"/>
    </linearGradient>
    <linearGradient id="linearGradient17035" y2="299.86" gradientUnits="userSpaceOnUse" x2="-54.47" gradientTransform="matrix(2.0568 0 0 2.0568 65.76 -1872.1)" y1="299.86" x1="-398.62">
      <stop id="stop3503-1" stop-color="#e8dcae" offset="0"/>
      <stop id="stop3509-7" stop-color="#28220b" offset=".56034"/>
      <stop id="stop3505-1" stop-color="#28220b" offset="1"/>
    </linearGradient>
    <linearGradient id="linearGradient17037" y2="387.38" gradientUnits="userSpaceOnUse" x2="-163.14" gradientTransform="matrix(2.7203 0 0 2.7203 70.347 -2140)" y1="397.95" x1="-162.13">
      <stop id="stop4316-5" stop-color="#ff2a2a" offset="0"/>
      <stop id="stop4322-2" stop-color="#500" offset=".96258"/>
      <stop id="stop4318-7" stop-color="#ff2a2a" stop-opacity="0" offset="1"/>
    </linearGradient>
    <linearGradient id="linearGradient17039" y2="383.82" gradientUnits="userSpaceOnUse" x2="-157.19" gradientTransform="matrix(2.7203 0 0 2.7203 70.347 -2140)" y1="312.73" x1="-159.7">
      <stop id="stop4328-1" stop-color="#500" offset="0"/>
      <stop id="stop4334-4" stop-color="#f00" stop-opacity=".56078" offset=".33736"/>
      <stop id="stop4336-2" stop-color="#f00" offset=".55427"/>
      <stop id="stop4330-3" stop-color="#f00" stop-opacity="0" offset="1"/>
    </linearGradient>
    <linearGradient id="linearGradient6461" y2="-1314.9" xlink:href="#linearGradient13944" gradientUnits="userSpaceOnUse" x2="-413.34" gradientTransform="matrix(1.2452 0 0 1.2452 212.88 1517.3)" y1="-1790.9" x1="-516.05"/>
    <linearGradient id="linearGradient17053" y2="-1768.4" gradientUnits="userSpaceOnUse" x2="-513.54" gradientTransform="matrix(.99843 -.056051 .056051 .99843 108.45 -60.707)" y1="-1683.2" x1="-204.16">
      <stop id="stop14252" offset="0"/>
      <stop id="stop14268" stop-color="#fff" offset=".065074"/>
      <stop id="stop14258" stop-opacity=".1451" offset=".82839"/>
      <stop id="stop14254" offset="1"/>
    </linearGradient>
    <linearGradient id="linearGradient17055" y2="-307.82" xlink:href="#linearGradient13944" gradientUnits="userSpaceOnUse" x2="417.69" gradientTransform="matrix(5.1946 1.145 -.65294 1.8142 -2710.2 -1716.4)" y1="-358.52" x1="437.97"/>
    <filter id="filter14319" height="1.5246" width="1.2062" y="-.2623" x="-.10308" color-interpolation-filters="sRGB">
      <feGaussianBlur id="feGaussianBlur14321" stdDeviation="21.584374"/>
    </filter>
  </defs>
  <g id="layer1" transform="translate(527.64 -140.05)">
    <g id="g6520" transform="matrix(.97357 0 0 .97357 533.92 804.46)">
      <path id="path16497" filter="url(#filter15841)" d="m-131.08-1262.8 26.571 10.628s3.5427-3.5427 0 7.0855-526.1 129.31-526.1 129.31l-14.171-19.485z" fill="#808080" transform="matrix(1.2843 .27912 -.27912 1.2843 -66.35 1679.8)"/>
      <g id="g16499" transform="matrix(1.2276 0 0 1.2276 866.23 1617.9)">
        <g id="g16501" stroke-linejoin="round" transform="matrix(.58904 0 0 .58904 -557.02 -769.36)" stroke="#000" stroke-linecap="round" stroke-width=".2">
          <path id="path16503" d="m-308.13-1322.5c0 118.98-93.09 215.44-207.92 215.44s-207.92-96.455-207.92-215.44 93.09-215.44 207.92-215.44 207.92 96.455 207.92 215.44z" transform="matrix(1.007 0 0 .92462 -736.66 -166.02)"/>
          <path id="path16505" d="m-308.13-1322.5c0 118.98-93.09 215.44-207.92 215.44s-207.92-96.455-207.92-215.44 93.09-215.44 207.92-215.44 207.92 96.455 207.92 215.44z" transform="matrix(1.007 0 0 .92462 -736.66 -166.02)"/>
        </g>
        <g id="g16507" stroke-linejoin="round" transform="matrix(.59726 0 0 .60529 -545.21 -748.02)" stroke="#000" stroke-linecap="round" stroke-width=".2" fill="url(#linearGradient21617)">
          <path id="path16509" d="m-308.13-1322.5c0 118.98-93.09 215.44-207.92 215.44s-207.92-96.455-207.92-215.44 93.09-215.44 207.92-215.44 207.92 96.455 207.92 215.44z" transform="matrix(1.007 0 0 .92462 -736.66 -166.02)"/>
          <path id="path16511" d="m-308.13-1322.5c0 118.98-93.09 215.44-207.92 215.44s-207.92-96.455-207.92-215.44 93.09-215.44 207.92-215.44 207.92 96.455 207.92 215.44z" transform="matrix(1.007 0 0 .92462 -736.66 -166.02)"/>
        </g>
        <path id="path16513" fill="url(#linearGradient17011)" d="m-1304.1-1708.2c-59.104 0-107.42 50.701-111 114.72 18.868 38.018 55.55 63.817 97.705 63.817 59.095 0 107.41-50.696 111-114.7-18.865-38.031-55.542-63.836-97.705-63.836z"/>
      </g>
      <path id="path16515" opacity=".33" filter="url(#filter14070)" d="m-420.86-1336.2c0 22.828-82.435 41.334-184.12 41.334-101.69 0-184.12-18.506-184.12-41.334s82.435-41.334 184.12-41.334c101.69 0 184.12 18.506 184.12 41.334z" transform="matrix(1.0438 0 0 2.1396 -219.04 2720)"/>
      <g id="g16517" stroke-linejoin="round" transform="matrix(.61418 0 0 .61418 -164.07 640.85)" stroke="#000" stroke-linecap="round" stroke-width=".2" fill="#808000">
        <path id="path16519" d="m-308.13-1322.5c0 118.98-93.09 215.44-207.92 215.44s-207.92-96.455-207.92-215.44 93.09-215.44 207.92-215.44 207.92 96.455 207.92 215.44z" transform="matrix(1.007 0 0 .92462 -736.66 -166.02)"/>
        <path id="path16521" d="m-308.13-1322.5c0 118.98-93.09 215.44-207.92 215.44s-207.92-96.455-207.92-215.44 93.09-215.44 207.92-215.44 207.92 96.455 207.92 215.44z" transform="matrix(1.007 0 0 .92462 -736.66 -166.02)"/>
      </g>
      <g id="g16523" stroke-linejoin="round" transform="matrix(.61418 0 0 .61418 -162.12 638.89)" stroke="#000" stroke-linecap="round" stroke-width=".2">
        <path id="path16525" d="m-308.13-1322.5c0 118.98-93.09 215.44-207.92 215.44s-207.92-96.455-207.92-215.44 93.09-215.44 207.92-215.44 207.92 96.455 207.92 215.44z" fill="url(#linearGradient21619)" transform="matrix(1.007 0 0 .92462 -736.66 -166.02)"/>
        <path id="path16527" d="m-308.13-1322.5c0 118.98-93.09 215.44-207.92 215.44s-207.92-96.455-207.92-215.44 93.09-215.44 207.92-215.44 207.92 96.455 207.92 215.44z" fill="url(#radialGradient17015)" transform="matrix(1.007 0 0 .92462 -736.66 -166.02)"/>
      </g>
      <path id="path16529" fill="url(#linearGradient6497)" d="m-935.67-337.96c-68.327 0-124.19 50.701-128.32 114.72 21.812 38.018 64.218 63.817 112.95 63.817 68.316 0 124.17-50.696 128.32-114.7-21.809-38.031-64.208-63.836-112.95-63.836z"/>
      <path id="path16531" opacity=".33" filter="url(#filter14070)" d="m-420.86-1336.2c0 22.828-82.435 41.334-184.12 41.334-101.69 0-184.12-18.506-184.12-41.334s82.435-41.334 184.12-41.334c101.69 0 184.12 18.506 184.12 41.334z" transform="matrix(.98393 -.17854 .17854 .98393 213.29 1104.9)"/>
      <g id="g16533" stroke-linejoin="round" transform="matrix(1.2452 0 0 1.2452 1198.6 1373.8)" stroke="#000" stroke-linecap="round" stroke-width=".2">
        <path id="path16535" d="m-308.13-1322.5c0 118.98-93.09 215.44-207.92 215.44s-207.92-96.455-207.92-215.44 93.09-215.44 207.92-215.44 207.92 96.455 207.92 215.44z" fill="#f60" transform="matrix(1.007 0 0 .92462 -736.66 -166.02)"/>
        <path id="path16537" d="m-308.13-1322.5c0 118.98-93.09 215.44-207.92 215.44s-207.92-96.455-207.92-215.44 93.09-215.44 207.92-215.44 207.92 96.455 207.92 215.44z" fill="url(#radialGradient17021)" transform="matrix(1.007 0 0 .92462 -736.66 -166.02)"/>
      </g>
      <g id="g16539" transform="matrix(.81003 0 0 .81003 136.21 721.76)">
        <g id="g16541" stroke-linejoin="round" transform="matrix(.78772 0 0 .78772 22.291 -39.527)" stroke="#000" stroke-linecap="round" stroke-width=".2" fill="#808000">
          <path id="path16543" d="m-308.13-1322.5c0 118.98-93.09 215.44-207.92 215.44s-207.92-96.455-207.92-215.44 93.09-215.44 207.92-215.44 207.92 96.455 207.92 215.44z" transform="matrix(1.007 0 0 .92462 -736.66 -166.02)"/>
          <path id="path16545" d="m-308.13-1322.5c0 118.98-93.09 215.44-207.92 215.44s-207.92-96.455-207.92-215.44 93.09-215.44 207.92-215.44 207.92 96.455 207.92 215.44z" transform="matrix(1.007 0 0 .92462 -736.66 -166.02)"/>
        </g>
        <g id="g16547" stroke-linejoin="round" transform="matrix(.78772 0 0 .78772 24.797 -39.527)" stroke="#000" stroke-linecap="round" stroke-width=".2" fill="#008080">
          <path id="path16549" d="m-308.13-1322.5c0 118.98-93.09 215.44-207.92 215.44s-207.92-96.455-207.92-215.44 93.09-215.44 207.92-215.44 207.92 96.455 207.92 215.44z" transform="matrix(1.007 0 0 .92462 -736.66 -166.02)"/>
          <path id="path16551" d="m-308.13-1322.5c0 118.98-93.09 215.44-207.92 215.44s-207.92-96.455-207.92-215.44 93.09-215.44 207.92-215.44 207.92 96.455 207.92 215.44z" transform="matrix(1.007 0 0 .92462 -736.66 -166.02)"/>
        </g>
        <g id="g16553" stroke-linejoin="round" transform="matrix(.78772 0 0 .78772 24.797 -42.032)" stroke="#000" stroke-linecap="round" stroke-width=".2">
          <path id="path16555" d="m-308.13-1322.5c0 118.98-93.09 215.44-207.92 215.44s-207.92-96.455-207.92-215.44 93.09-215.44 207.92-215.44 207.92 96.455 207.92 215.44z" fill="url(#linearGradient21619)" transform="matrix(1.007 0 0 .92462 -736.66 -166.02)"/>
          <path id="path16557" d="m-308.13-1322.5c0 118.98-93.09 215.44-207.92 215.44s-207.92-96.455-207.92-215.44 93.09-215.44 207.92-215.44 207.92 96.455 207.92 215.44z" fill="url(#radialGradient17015)" transform="matrix(1.007 0 0 .92462 -736.66 -166.02)"/>
        </g>
        <path id="path16559" fill="#008080" d="m-945.9-1149.6c-77.702 0-141.23 42.973-145.93 97.232 24.805 32.224 73.029 54.09 128.45 54.09 77.689 0 141.21-42.969 145.93-97.216-24.801-32.235-73.018-54.106-128.45-54.106z"/>
        <path id="path16561" fill="url(#linearGradient17029)" d="m-967.33-1292.4c-87.633 0-159.28 65.027-164.58 147.13 27.976 48.761 82.364 81.849 144.87 81.849 87.62 0 159.26-65.02 164.58-147.11-27.971-48.778-82.351-81.874-144.87-81.874z"/>
      </g>
      <g id="g16563" transform="matrix(1.1006 .086634 -.065790 1.0447 173.34 1210.6)">
        <path id="path16565" stroke-linejoin="round" d="m-222.95 49.073c0 10.376-30.282 18.788-67.637 18.788s-67.637-8.4118-67.637-18.788 30.282-18.788 67.637-18.788 67.637 8.4118 67.637 18.788z" transform="matrix(.12502 1.5673 -1.5673 .12502 -631.82 -698.81)" stroke="#fff" stroke-linecap="round" stroke-width=".5"/>
        <path id="path16567" opacity=".55" d="m-749.21-1253.2 649.17-41.349c74.052 18.106 66.445 159.06 12.881 175.19l-645.54 76.267c46.193-15.16 29.062-206.23-16.511-210.1z" fill="url(#linearGradient17031)"/>
        <path id="path16569" d="m-222.95 49.073c0 12.428-30.282 22.503-67.637 22.503s-67.637-10.075-67.637-22.503 30.282-22.503 67.637-22.503 67.637 10.075 67.637 22.503z" fill="url(#linearGradient17033)" transform="matrix(.12502 1.5673 -1.5673 .12502 -628.18 -698.81)"/>
        <path id="path16571" fill="#008080" d="m-754.94-1254.2 655.84-41.043c12.362 3.2219 44.189 3.5986 50.668 27.049l-638.96 47.82c-2.5938-40.366-59.807-34.993-67.547-33.825z"/>
        <path id="path16573" fill="url(#linearGradient17035)" d="m-754.14-1254.2 655.03-41.043c12.362 3.2219 32.687-5.2335 52.829 27.326 0 0-254.31 19.207-265.81 21.976-8.6573 2.0285-11.547 2.5842-18.785 4.1157 4.685-0.6387-32.894 3.6887-32.894 3.6887l-25.431 1.2989c-12.037 1.2769-18.168-2.2447-31.487-1.325l-284.63 22.62c-13.589-36.346-41.079-39.823-48.818-38.656z"/>
        <path id="path16575" d="m-413.62-1275.8c1.807-0.6022 43.078-2.6253 43.078-2.6253s10.937 0.9061 20.314 18.351c12.95 24.093 9.0348 17.769 9.0348 17.769s10.944 28.594 11.444 47.884c1.157 18.931 1.4448 26.924-2.4093 51.498-2.6692 13.241-7.5804 25.793-12.348 34.332-4.8457 6.7473-9.1744 16.179-16.865 20.479-2.0328 1.0541-2.2846 1.667-2.2846 1.667s52.928 25.606 51.723 25.606c-0.62101 0-36.585-6.0852-40.378-4.7343-4.3987 1.5668-7.4636 20.919-7.4636 20.919l-42.65-37.413s1.9228-0.6564 3.5925-1.7023c5.2167-3.2679 11.716-5.0039 18.487-13.678 8.8576-11.348 15.189-29.649 16.564-41.56 1.807-15.66 2.7105-34.332 1.2047-53.004-1.2299-15.25-9.0348-47.734-15.962-59.479-6.9267-11.745-13.025-18.597-20.479-22.135-2.8804-1.3675-8.0119-2.5797-11.354-2.3558-1.2724 0.084-3.2503 0.1823-3.2503 0.1823z" stroke="#500" stroke-width=".54405" fill="#a00"/>
        <path id="path16577" fill="url(#linearGradient17037)" d="m-401.24-1081.9 37.586-4.5785 49.299 24.809-35.776-5.1108s-0.85179-1.3841-3.5137 1.2777c-2.6619 2.662-6.2821 15.226-6.2821 16.717 0 1.4907-0.31942 2.9814-0.31942 2.9814z"/>
        <path id="path16579" fill="url(#linearGradient17039)" d="m-412.62-1275.9c1.807-0.6025 43.078-2.6256 43.078-2.6256s10.937 0.9062 20.314 18.352c12.95 24.093 9.0348 17.768 9.0348 17.768s10.944 28.594 11.444 47.884c1.157 18.931 1.4448 26.924-2.4093 51.498-2.6692 13.241-7.5804 25.793-12.348 34.332-4.8457 6.7473-9.1744 16.179-16.865 20.479-2.0328 1.0541-2.2846 1.6669-2.2846 1.6669s-10.992 1.2486-13.732 1.741c-16.158 1.9542-12.158 1.1207-20.294 2.0927l-4.7419 0.544s1.9228-0.6564 3.5925-1.7023c5.2167-3.2678 11.716-5.0039 18.487-13.678 8.8576-11.348 15.189-29.649 16.564-41.56 1.807-15.66 2.7105-34.332 1.2047-53.004-1.2299-15.25-9.0348-47.734-15.962-59.479-6.9267-11.745-13.025-18.597-20.479-22.135-2.8804-1.3675-8.0119-2.5796-11.354-2.3558-1.2724 0.084-3.2503 0.1823-3.2503 0.1823z"/>
        <path id="path16581" stroke-linejoin="round" d="m-222.95 49.073c0 10.376-30.282 18.788-67.637 18.788s-67.637-8.4118-67.637-18.788 30.282-18.788 67.637-18.788 67.637 8.4118 67.637 18.788z" transform="matrix(.12502 1.5673 -1.5673 .12502 -631.82 -698.81)" stroke="#fff" stroke-linecap="round" stroke-width=".5"/>
        <path id="path16583" opacity=".55" d="m-749.21-1253.2 649.17-41.349c74.052 18.106 66.445 159.06 12.881 175.19l-645.54 76.267c46.193-15.16 29.062-206.23-16.511-210.1z" fill="url(#linearGradient17031)"/>
        <path id="path16585" d="m-222.95 49.073c0 12.428-30.282 22.503-67.637 22.503s-67.637-10.075-67.637-22.503 30.282-22.503 67.637-22.503 67.637 10.075 67.637 22.503z" fill="url(#linearGradient17033)" transform="matrix(.12502 1.5673 -1.5673 .12502 -628.18 -698.81)"/>
        <path id="path16587" fill="#008080" d="m-754.94-1254.2 655.84-41.043c12.362 3.2219 44.189 3.5986 50.668 27.049l-638.96 47.82c-2.5938-40.366-59.807-34.993-67.547-33.825z"/>
        <path id="path16589" fill="url(#linearGradient17035)" d="m-754.14-1254.2 655.03-41.043c12.362 3.2219 32.687-5.2335 52.829 27.326 0 0-254.31 19.207-265.81 21.976-8.6573 2.0285-11.547 2.5842-18.785 4.1157 4.685-0.6387-32.894 3.6887-32.894 3.6887l-25.431 1.2989c-12.037 1.2769-18.168-2.2447-31.487-1.325l-284.63 22.62c-13.589-36.346-41.079-39.823-48.818-38.656z"/>
        <path id="path16591" d="m-413.62-1275.8c1.807-0.6022 43.078-2.6253 43.078-2.6253s10.937 0.9061 20.314 18.351c12.95 24.093 9.0348 17.769 9.0348 17.769s10.944 28.594 11.444 47.884c1.157 18.931 1.4448 26.924-2.4093 51.498-2.6692 13.241-7.5804 25.793-12.348 34.332-4.8457 6.7473-9.1744 16.179-16.865 20.479-2.0328 1.0541-2.2846 1.667-2.2846 1.667s52.928 25.606 51.723 25.606c-0.62101 0-36.585-6.0852-40.378-4.7343-4.3987 1.5668-7.4636 20.919-7.4636 20.919l-42.65-37.413s1.9228-0.6564 3.5925-1.7023c5.2167-3.2679 11.716-5.0039 18.487-13.678 8.8576-11.348 15.189-29.649 16.564-41.56 1.807-15.66 2.7105-34.332 1.2047-53.004-1.2299-15.25-9.0348-47.734-15.962-59.479-6.9267-11.745-13.025-18.597-20.479-22.135-2.8804-1.3675-8.0119-2.5797-11.354-2.3558-1.2724 0.084-3.2503 0.1823-3.2503 0.1823z" stroke="#500" stroke-width=".54405" fill="#a00"/>
        <path id="path16593" fill="url(#linearGradient17037)" d="m-401.24-1081.9 37.586-4.5785 49.299 24.809-35.776-5.1108s-0.85179-1.3841-3.5137 1.2777c-2.6619 2.662-6.2821 15.226-6.2821 16.717 0 1.4907-0.31942 2.9814-0.31942 2.9814z"/>
        <path id="path16595" fill="url(#linearGradient17039)" d="m-412.62-1275.9c1.807-0.6025 43.078-2.6256 43.078-2.6256s10.937 0.9062 20.314 18.352c12.95 24.093 9.0348 17.768 9.0348 17.768s10.944 28.594 11.444 47.884c1.157 18.931 1.4448 26.924-2.4093 51.498-2.6692 13.241-7.5804 25.793-12.348 34.332-4.8457 6.7473-9.1744 16.179-16.865 20.479-2.0328 1.0541-2.2846 1.6669-2.2846 1.6669s-10.992 1.2486-13.732 1.741c-16.158 1.9542-12.158 1.1207-20.294 2.0927l-4.7419 0.544s1.9228-0.6564 3.5925-1.7023c5.2167-3.2678 11.716-5.0039 18.487-13.678 8.8576-11.348 15.189-29.649 16.564-41.56 1.807-15.66 2.7105-34.332 1.2047-53.004-1.2299-15.25-9.0348-47.734-15.962-59.479-6.9267-11.745-13.025-18.597-20.479-22.135-2.8804-1.3675-8.0119-2.5796-11.354-2.3558-1.2724 0.084-3.2503 0.1823-3.2503 0.1823z"/>
      </g>
      <path id="path16597" fill="url(#linearGradient6461)" d="m-365.75-606.62c-138.52 0-251.77 102.79-260.16 232.57 44.222 77.077 130.19 129.38 228.99 129.38 138.5 0 251.74-102.78 260.16-232.53-44.214-77.104-130.17-129.42-228.99-129.42z"/>
      <g id="g16599" transform="translate(15.031 1220)">
        <path id="path16601" d="m-496.27-1832.4-8.2019 49.386s5.8093 16.859 22.378 28.225c15.345 10.527 39.512 24.754 59.58 32.409 15.893 6.0626 57.086 16.02 87.056 17.694 33.606 1.877 68.527-2.9724 101.16-8.8155 25.167-4.5058 42.953-16.838 42.953-16.838l4.9505-14.705-167.37-18.203z" stroke="#000" stroke-width=".9596px" fill="#333"/>
        <path id="path16603" d="m-496.27-1832.4-8.2019 49.386s5.8093 16.859 22.378 28.225c15.345 10.527 39.512 24.754 59.58 32.409 15.893 6.0626 57.086 16.02 87.056 17.694 33.606 1.877 68.527-2.9724 101.16-8.8155 25.167-4.5058 42.953-16.838 42.953-16.838l4.9505-14.705-167.37-18.203z" stroke="#000" stroke-width=".9596px" fill="url(#linearGradient17053)"/>
        <path id="rect16605" stroke-linejoin="round" d="m-5207.2-4456.4h290.98v337.83h-290.98z" transform="matrix(.90532 .42473 -.99682 -.079658 0 0)" stroke="#000" stroke-linecap="round" stroke-width="19.538"/>
        <path id="path16607" fill="url(#linearGradient17055)" d="m-268.62-1856-336.88-26.893 45.432 21.274c32.054 1.6174 71.111 5.4472 103.62 14.396 67.9 18.69 60.153 40.56 121.47 57.799 61.315 17.238 181.87 37.63 228.81 35.566 13.941-0.6131 34.26-0.3726 55.803 0.2453l-218.25-102.39z"/>
        <path id="path16609" fill="url(#linearGradient17055)" d="m-268.62-1856-336.88-26.893 45.432 21.274c32.054 1.6174 71.111 5.4472 103.62 14.396 67.9 18.69 60.153 40.56 121.47 57.799 61.315 17.238 181.87 37.63 228.81 35.566 13.941-0.6131 34.26-0.3726 55.803 0.2453l-218.25-102.39z"/>
        <path id="path16611" opacity=".22" filter="url(#filter14319)" d="m-364.31-1367.4c18.693 58.811-101.03 45.87-196.69 94.728-139.39 71.192-221.58-35.807-281.51-72.48-62.481-38.232 23.073-93.503 46.114-100.4 33.584-10.06 149.95 90.217 210.27 90.217 101.69 0 202.2-73.808 221.82-12.06z" transform="matrix(.70457 0 0 .57133 95.625 -949.05)"/>
      </g>
      <path id="path16613" fill="#786721" d="m-300.72-602.65c-0.42151 2.6554 1.0116 2.8566 1.2372 4.537 0.1751 1.3044-1.8736 4.292 3.4709 4.953 61.696 7.6301 260.07 72.774 269.93 73.832 12.052 6.3433 34.743 12.101 36.646 29.228 2.6434 23.791-8.8967 130.01-8.8967 130.01l7.612 13.321h12.687l1.2848-154.74c-2.0955-12.908-24.418-16.312-36.646-24.153-87.061-13.559-190.83-67.34-284.65-77.516z"/>
      <path id="path16615" d="m11.036-370.96c-19.13 93.713-20.87 97.272-20.87 97.272" stroke="#c8ab37" stroke-width="4.5869px" fill="#c8ab37"/>
      <path id="path16617" d="m25.405-369.03c-3.8733 99.136-4.3297 102.9-4.3297 102.9" stroke="#c8ab37" stroke-width="2.6075px" fill="#c8ab37"/>
      <path id="path16619" d="m17.898-370.48c-7.3175 81.424-8.1798 84.516-8.1798 84.516" stroke="#c8ab37" stroke-width="3.2481px" fill="#c8ab37"/>
      <path id="path16621" d="m6.4616-372.72c-16.813 65.75-18.795 68.247-18.795 68.247" stroke="#c8ab37" stroke-width="4.4243px" fill="#c8ab37"/>
      <path id="path16623" d="m14.577-368.1c-12.346 81.84-13.801 84.94-13.801 84.94" stroke="#c8ab37" stroke-width="4.2298px" fill="#c8ab37"/>
      <path id="path16625" d="m22.073-369c-4.2406 79.473-4.7403 82.491-4.7403 82.491" stroke="#c8ab37" stroke-width="2.4428px" fill="#c8ab37"/>
      <path id="path16627" d="m12.192-369.86c-11.428 94.96-12.871 98.649-12.871 98.649" stroke="#a0892c" stroke-width="4.5869px" fill="#a0892c"/>
      <path id="path16629" d="m26.671-369.11c4.2206 99.122 4.0726 102.91 4.0726 102.91" stroke="#a0892c" stroke-width="2.6075px" fill="#a0892c"/>
      <path id="path16631" d="m19.07-369.94c-0.65594 81.749-1.2634 84.902-1.2634 84.902" stroke="#a0892c" stroke-width="3.2481px" fill="#a0892c"/>
      <path id="path16633" d="m7.4888-371.24c-11.398 66.902-13.169 69.552-13.169 69.552" stroke="#a0892c" stroke-width="4.4243px" fill="#a0892c"/>
      <path id="path16635" d="m15.954-367.3c-5.6339 82.575-6.8307 85.792-6.8307 85.792" stroke="#a0892c" stroke-width="4.2298px" fill="#a0892c"/>
      <path id="path16637" d="m23.352-368.8c2.2518 79.554 1.9997 82.603 1.9997 82.603" stroke="#a0892c" stroke-width="2.4428px" fill="#a0892c"/>
      <path id="path16639" d="m14.739-370.06c-30.951 90.499-33.131 93.807-33.131 93.807" stroke="#decd87" stroke-width="4.5869px" fill="#decd87"/>
      <path id="path16641" d="m28.744-366.31c-16.512 97.828-17.446 101.5-17.446 101.5" stroke="#decd87" stroke-width="2.6075px" fill="#decd87"/>
      <path id="path16643" d="m21.484-368.71c-17.664 79.82-18.915 82.78-18.915 82.78" stroke="#decd87" stroke-width="3.2481px" fill="#decd87"/>
      <path id="path16645" d="m10.428-372.39c-25.079 63.062-27.363 65.285-27.363 65.285" stroke="#decd87" stroke-width="4.4243px" fill="#decd87"/>
      <path id="path16647" d="m17.886-366.77c-22.705 79.592-24.545 82.488-24.545 82.488" stroke="#decd87" stroke-width="4.2298px" fill="#decd87"/>
      <path id="path16649" d="m25.436-366.7c-14.363 78.28-15.244 81.209-15.244 81.209" stroke="#decd87" stroke-width="2.4428px" fill="#decd87"/>
      <path id="path16651" d="m11.997-367.76c-8.8064 75.504-10.141 78.531-10.141 78.531" stroke="#e9ddaf" stroke-width="4.0524px" fill="#e9ddaf"/>
      <path id="path16653" d="m26.389-368.54c6.837 77.291 6.7924 80.275 6.7924 80.275" stroke="#e9ddaf" stroke-width="2.3036px" fill="#e9ddaf"/>
      <path id="path16655" d="m18.821-368.48c1.5331 64.135 1.0143 66.662 1.0143 66.662" stroke="#e9ddaf" stroke-width="2.8696px" fill="#e9ddaf"/>
      <path id="path16657" d="m7.2914-368.41c-9.5263 53.51-11.214 55.754-11.214 55.754" stroke="#e9ddaf" stroke-width="3.9087px" fill="#e9ddaf"/>
      <path id="path16659" d="m15.799-366.12c-3.386 65.251-4.4881 67.884-4.4881 67.884" stroke="#e9ddaf" stroke-width="3.7369px" fill="#e9ddaf"/>
      <path id="path16661" d="m23.103-367.99c4.3607 62.14 4.1919 64.554 4.1919 64.554" stroke="#e9ddaf" stroke-width="2.1581px" fill="#e9ddaf"/>
      <path id="path16663" d="m13.99-363.62c-12.399 93.713-13.883 97.272-13.883 97.272" stroke="#c8ab37" stroke-width="4.5869px" fill="#c8ab37"/>
      <path id="path16665" d="m28.498-361.69c3.2474 99.136 3.0613 102.9 3.0613 102.9" stroke="#c8ab37" stroke-width="2.6075px" fill="#c8ab37"/>
      <path id="path16667" d="m20.886-363.14c-1.4691 81.424-2.1094 84.516-2.1094 84.516" stroke="#c8ab37" stroke-width="3.2481px" fill="#c8ab37"/>
      <path id="path16669" d="m9.2885-365.39c-12.091 65.75-13.893 68.247-13.893 68.247" stroke="#c8ab37" stroke-width="4.4243px" fill="#c8ab37"/>
      <path id="path16671" d="m17.736-360.77c-6.4679 81.841-7.6996 84.949-7.6996 84.949" stroke="#c8ab37" stroke-width="4.2298px" fill="#c8ab37"/>
      <path id="path16673" d="m25.168-361.66c1.4678 79.473 1.1848 82.491 1.1848 82.491" stroke="#c8ab37" stroke-width="2.4428px" fill="#c8ab37"/>
      <path id="path16675" d="m15.225-362.52c-4.6072 94.96-5.7855 98.649-5.7855 98.649" stroke="#a0892c" stroke-width="4.5869px" fill="#a0892c"/>
      <path id="path16677" d="m29.758-361.77c11.34 99.122 11.464 102.91 11.464 102.91" stroke="#a0892c" stroke-width="2.6075px" fill="#a0892c"/>
      <path id="path16679" d="m22.096-362.61c5.2158 81.749 4.8348 84.902 4.8348 84.902" stroke="#a0892c" stroke-width="3.2481px" fill="#a0892c"/>
      <path id="path16681" d="m10.422-363.91c-6.5925 66.902-8.1734 69.552-8.1734 69.552" stroke="#a0892c" stroke-width="4.4243px" fill="#a0892c"/>
      <path id="path16683" d="m19.17-359.96c0.29736 82.575-0.66851 85.791-0.66851 85.791" stroke="#a0892c" stroke-width="4.2298px" fill="#a0892c"/>
      <path id="path16685" d="m26.461-361.47c7.966 79.554 7.9328 82.603 7.9328 82.603" stroke="#a0892c" stroke-width="2.4428px" fill="#a0892c"/>
      <path id="path16687" d="m17.758-362.72c-24.451 90.499-26.393 93.807-26.393 93.807" stroke="#decd87" stroke-width="4.5869px" fill="#decd87"/>
      <path id="path16689" d="m32.032-358.97c-9.4853 97.828-10.155 101.5-10.155 101.5" stroke="#decd87" stroke-width="2.6075px" fill="#decd87"/>
      <path id="path16691" d="m24.599-361.37c-11.931 79.821-12.969 82.777-12.969 82.777" stroke="#decd87" stroke-width="3.2481px" fill="#decd87"/>
      <path id="path16693" d="m13.279-365.06c-20.549 63.062-22.674 65.285-22.674 65.285" stroke="#decd87" stroke-width="4.4243px" fill="#decd87"/>
      <path id="path16695" d="m21.14-359.44c-16.988 79.6-18.62 82.49-18.62 82.49" stroke="#decd87" stroke-width="4.2298px" fill="#decd87"/>
      <path id="path16697" d="m28.695-359.36c-8.7405 78.28-9.4115 81.209-9.4115 81.209" stroke="#decd87" stroke-width="2.4428px" fill="#decd87"/>
      <path id="path16699" d="m15.888-363.26c-3.3832 75.504-4.4999 78.531-4.4999 78.531" stroke="#e9ddaf" stroke-width="4.0524px" fill="#e9ddaf"/>
      <path id="path16701" d="m29.517-361.2c12.389 77.291 12.558 80.275 12.558 80.275" stroke="#e9ddaf" stroke-width="2.3036px" fill="#e9ddaf"/>
      <path id="path16703" d="m21.953-361.14c6.1396 64.135 5.8024 66.662 5.8024 66.662" stroke="#e9ddaf" stroke-width="2.8696px" fill="#e9ddaf"/>
      <path id="path16705" d="m10.9-363.67c-5.6829 53.509-7.2092 55.754-7.2092 55.754" stroke="#e9ddaf" stroke-width="3.9087px" fill="#e9ddaf"/>
      <path id="path16707" d="m20.751-361.85c1.3007 65.251 0.38768 67.884 0.38768 67.884" stroke="#e9ddaf" stroke-width="3.7369px" fill="#e9ddaf"/>
      <path id="path16709" d="m26.27-360.65c8.8241 62.14 8.8286 64.554 8.8286 64.554" stroke="#e9ddaf" stroke-width="2.1581px" fill="#e9ddaf"/>
      <path id="path16711" fill="#decd87" d="m-299.77-600.29c12.955 0.9433-0.70165 1.1607 14.592 3.0549 66.236 8.204 255.16 73.415 264.76 73.193 14.053 11.679 29.407 10.767 33.978 24.558 6.0627 18.293-2.4928 91.614-4.803 118.82-0.10011 1.1777-0.18489 1.3237-0.25305 2.3164-0.35914 5.2328-5.0936 4.194-5.0936 4.194-4.6048 6.0726-3.7076 15.74-1.9752 14.902 8.5101-4.1174 13.407-2.8392 15.631-2.3809 5.5652 0.1993 8.7722 1.645 11.272 10.14 3.5373-4.2448 2.7934-13.375 2.7934-13.375l-3.7056-9.4784 1.4896-131.89c-2.0955-12.908-24.418-16.312-36.646-24.153-87.061-13.559-190.83-67.34-284.65-77.516z"/>
      <path id="path16713" d="m11.036-370.96c-19.13 93.713-20.87 97.272-20.87 97.272" stroke="#c8ab37" stroke-width="4.5869px" fill="#c8ab37"/>
      <path id="path16715" d="m25.405-369.03c-3.8733 99.136-4.3297 102.9-4.3297 102.9" stroke="#c8ab37" stroke-width="2.6075px" fill="#c8ab37"/>
      <path id="path16717" d="m17.898-370.48c-7.3175 81.424-8.1798 84.516-8.1798 84.516" stroke="#c8ab37" stroke-width="3.2481px" fill="#c8ab37"/>
      <path id="path16719" d="m6.4616-372.72c-16.813 65.75-18.795 68.247-18.795 68.247" stroke="#c8ab37" stroke-width="4.4243px" fill="#c8ab37"/>
      <path id="path16721" d="m14.577-368.1c-12.346 81.84-13.801 84.94-13.801 84.94" stroke="#c8ab37" stroke-width="4.2298px" fill="#c8ab37"/>
      <path id="path16723" d="m22.073-369c-4.2406 79.473-4.7403 82.491-4.7403 82.491" stroke="#c8ab37" stroke-width="2.4428px" fill="#c8ab37"/>
      <path id="path16725" d="m12.192-369.86c-11.428 94.961-12.871 98.649-12.871 98.649" stroke="#a0892c" stroke-width="4.5869px" fill="#a0892c"/>
      <path id="path16727" d="m26.671-369.11c4.2206 99.122 4.0726 102.91 4.0726 102.91" stroke="#a0892c" stroke-width="2.6075px" fill="#a0892c"/>
      <path id="path16729" d="m19.07-369.94c-0.65594 81.749-1.2634 84.902-1.2634 84.902" stroke="#a0892c" stroke-width="3.2481px" fill="#a0892c"/>
      <path id="path16731" d="m7.4888-371.24c-11.398 66.902-13.169 69.552-13.169 69.552" stroke="#a0892c" stroke-width="4.4243px" fill="#a0892c"/>
      <path id="path16733" d="m15.954-367.3c-5.6339 82.575-6.8307 85.792-6.8307 85.792" stroke="#a0892c" stroke-width="4.2298px" fill="#a0892c"/>
      <path id="path16735" d="m23.352-368.8c2.2518 79.555 1.9997 82.603 1.9997 82.603" stroke="#a0892c" stroke-width="2.4428px" fill="#a0892c"/>
      <path id="path16737" d="m14.739-370.06c-30.951 90.5-33.131 93.807-33.131 93.807" stroke="#decd87" stroke-width="4.5869px" fill="#decd87"/>
      <path id="path16739" d="m28.744-366.31c-16.512 97.828-17.446 101.5-17.446 101.5" stroke="#decd87" stroke-width="2.6075px" fill="#decd87"/>
      <path id="path16741" d="m21.484-368.71c-17.664 79.82-18.915 82.78-18.915 82.78" stroke="#decd87" stroke-width="3.2481px" fill="#decd87"/>
      <path id="path16743" d="m10.428-372.39c-25.079 63.062-27.363 65.285-27.363 65.285" stroke="#decd87" stroke-width="4.4243px" fill="#decd87"/>
      <path id="path16745" d="m17.886-366.77c-22.705 79.592-24.545 82.489-24.545 82.489" stroke="#decd87" stroke-width="4.2298px" fill="#decd87"/>
      <path id="path16747" d="m25.436-366.7c-14.363 78.28-15.244 81.209-15.244 81.209" stroke="#decd87" stroke-width="2.4428px" fill="#decd87"/>
      <path id="path16749" d="m11.997-367.76c-8.8064 75.504-10.141 78.531-10.141 78.531" stroke="#e9ddaf" stroke-width="4.0524px" fill="#e9ddaf"/>
      <path id="path16751" d="m26.389-368.54c6.837 77.291 6.7924 80.275 6.7924 80.275" stroke="#e9ddaf" stroke-width="2.3036px" fill="#e9ddaf"/>
      <path id="path16753" d="m18.821-368.48c1.5331 64.135 1.0143 66.662 1.0143 66.662" stroke="#e9ddaf" stroke-width="2.8696px" fill="#e9ddaf"/>
      <path id="path16755" d="m7.2914-368.41c-9.5263 53.51-11.214 55.754-11.214 55.754" stroke="#e9ddaf" stroke-width="3.9087px" fill="#e9ddaf"/>
      <path id="path16757" d="m15.799-366.12c-3.386 65.251-4.4881 67.884-4.4881 67.884" stroke="#e9ddaf" stroke-width="3.7369px" fill="#e9ddaf"/>
      <path id="path16759" d="m23.103-367.99c4.3607 62.14 4.1919 64.554 4.1919 64.554" stroke="#e9ddaf" stroke-width="2.1581px" fill="#e9ddaf"/>
      <path id="path16761" d="m13.99-363.62c-12.399 93.713-13.883 97.272-13.883 97.272" stroke="#c8ab37" stroke-width="4.5869px" fill="#c8ab37"/>
      <path id="path16763" d="m28.498-361.69c3.2474 99.136 3.0613 102.9 3.0613 102.9" stroke="#c8ab37" stroke-width="2.6075px" fill="#c8ab37"/>
      <path id="path16765" d="m20.886-363.14c-1.4691 81.424-2.1094 84.516-2.1094 84.516" stroke="#c8ab37" stroke-width="3.2481px" fill="#c8ab37"/>
      <path id="path16767" d="m9.2885-365.39c-12.091 65.75-13.893 68.247-13.893 68.247" stroke="#c8ab37" stroke-width="4.4243px" fill="#c8ab37"/>
      <path id="path16769" d="m17.736-360.77c-6.4679 81.841-7.6996 84.949-7.6996 84.949" stroke="#c8ab37" stroke-width="4.2298px" fill="#c8ab37"/>
      <path id="path16771" d="m25.168-361.66c1.4678 79.473 1.1848 82.491 1.1848 82.491" stroke="#c8ab37" stroke-width="2.4428px" fill="#c8ab37"/>
      <path id="path16773" d="m15.225-362.52c-4.6072 94.961-5.7855 98.649-5.7855 98.649" stroke="#a0892c" stroke-width="4.5869px" fill="#a0892c"/>
      <path id="path16775" d="m29.758-361.77c11.34 99.122 11.464 102.91 11.464 102.91" stroke="#a0892c" stroke-width="2.6075px" fill="#a0892c"/>
      <path id="path16777" d="m22.096-362.61c5.2158 81.749 4.8348 84.902 4.8348 84.902" stroke="#a0892c" stroke-width="3.2481px" fill="#a0892c"/>
      <path id="path16779" d="m10.422-363.91c-6.5925 66.902-8.1734 69.552-8.1734 69.552" stroke="#a0892c" stroke-width="4.4243px" fill="#a0892c"/>
      <path id="path16781" d="m19.17-359.96c0.29736 82.575-0.66851 85.792-0.66851 85.792" stroke="#a0892c" stroke-width="4.2298px" fill="#a0892c"/>
      <path id="path16783" d="m26.461-361.47c7.966 79.555 7.9328 82.603 7.9328 82.603" stroke="#a0892c" stroke-width="2.4428px" fill="#a0892c"/>
      <path id="path16785" d="m17.758-362.72c-24.451 90.5-26.393 93.807-26.393 93.807" stroke="#decd87" stroke-width="4.5869px" fill="#decd87"/>
      <path id="path16787" d="m32.032-358.97c-9.4853 97.828-10.155 101.5-10.155 101.5" stroke="#decd87" stroke-width="2.6075px" fill="#decd87"/>
      <path id="path16789" d="m24.599-361.37c-11.931 79.821-12.969 82.777-12.969 82.777" stroke="#decd87" stroke-width="3.2481px" fill="#decd87"/>
      <path id="path16791" d="m13.279-365.06c-20.549 63.062-22.674 65.285-22.674 65.285" stroke="#decd87" stroke-width="4.4243px" fill="#decd87"/>
      <path id="path16793" d="m21.14-359.44c-16.988 79.6-18.62 82.49-18.62 82.49" stroke="#decd87" stroke-width="4.2298px" fill="#decd87"/>
      <path id="path16795" d="m28.695-359.36c-8.7405 78.28-9.4115 81.209-9.4115 81.209" stroke="#decd87" stroke-width="2.4428px" fill="#decd87"/>
      <path id="path16797" d="m15.888-363.26c-3.3832 75.504-4.4999 78.531-4.4999 78.531" stroke="#e9ddaf" stroke-width="4.0524px" fill="#e9ddaf"/>
      <path id="path16799" d="m29.517-361.2c12.389 77.291 12.558 80.275 12.558 80.275" stroke="#e9ddaf" stroke-width="2.3036px" fill="#e9ddaf"/>
      <path id="path16801" d="m21.953-361.14c6.1396 64.135 5.8024 66.662 5.8024 66.662" stroke="#e9ddaf" stroke-width="2.8696px" fill="#e9ddaf"/>
      <path id="path16803" d="m10.9-363.67c-5.6829 53.51-7.2092 55.754-7.2092 55.754" stroke="#e9ddaf" stroke-width="3.9087px" fill="#e9ddaf"/>
      <path id="path16805" d="m20.751-361.85c1.3007 65.251 0.38768 67.884 0.38768 67.884" stroke="#e9ddaf" stroke-width="3.7369px" fill="#e9ddaf"/>
      <path id="path16807" d="m26.27-360.65c8.8241 62.14 8.8286 64.554 8.8286 64.554" stroke="#e9ddaf" stroke-width="2.1581px" fill="#e9ddaf"/>
      <path id="path16809" fill="#786721" d="m-300.72-602.65c-0.65513 4.1271 7.1408 4.2612 6.2786 1.7561-0.32975-0.9581-1.5489 3.3379-0.0205 3.5269 1.4421 0.1784 1.409 4.5951 2.9964 4.8348 66.321 10.013 255.75 72.171 265.38 73.205 12.052 6.3433 34.743 12.101 36.646 29.228 2.6434 23.791-8.8967 130.01-8.8967 130.01l7.612 13.321h12.687l1.2848-154.74c-2.0955-12.908-24.418-16.312-36.646-24.153-85.676-13.343-183.45-71.428-275.96-82.972-1.4959-0.1867-2.769 0.9674-4.262 0.8054l-3.6047 1.8777z"/>
      <path id="path16811" d="m11.036-370.96c-19.13 93.713-20.87 97.272-20.87 97.272" stroke="#c8ab37" stroke-width="4.5869px" fill="#c8ab37"/>
      <path id="path16813" d="m25.405-369.03c-3.8733 99.136-4.3297 102.9-4.3297 102.9" stroke="#c8ab37" stroke-width="2.6075px" fill="#c8ab37"/>
      <path id="path16815" d="m17.898-370.48c-7.3175 81.424-8.1798 84.516-8.1798 84.516" stroke="#c8ab37" stroke-width="3.2481px" fill="#c8ab37"/>
      <path id="path16817" d="m6.4616-372.72c-16.813 65.75-18.795 68.247-18.795 68.247" stroke="#c8ab37" stroke-width="4.4243px" fill="#c8ab37"/>
      <path id="path16819" d="m14.577-368.1c-12.346 81.84-13.801 84.94-13.801 84.94" stroke="#c8ab37" stroke-width="4.2298px" fill="#c8ab37"/>
      <path id="path16821" d="m22.073-369c-4.2406 79.473-4.7403 82.491-4.7403 82.491" stroke="#c8ab37" stroke-width="2.4428px" fill="#c8ab37"/>
      <path id="path16823" d="m12.192-369.86c-11.428 94.96-12.871 98.649-12.871 98.649" stroke="#a0892c" stroke-width="4.5869px" fill="#a0892c"/>
      <path id="path16825" d="m26.671-369.11c4.2206 99.122 4.0726 102.91 4.0726 102.91" stroke="#a0892c" stroke-width="2.6075px" fill="#a0892c"/>
      <path id="path16827" d="m19.07-369.94c-0.65594 81.749-1.2634 84.902-1.2634 84.902" stroke="#a0892c" stroke-width="3.2481px" fill="#a0892c"/>
      <path id="path16829" d="m7.4888-371.24c-11.398 66.902-13.169 69.552-13.169 69.552" stroke="#a0892c" stroke-width="4.4243px" fill="#a0892c"/>
      <path id="path16831" d="m15.954-367.3c-5.6339 82.575-6.8307 85.792-6.8307 85.792" stroke="#a0892c" stroke-width="4.2298px" fill="#a0892c"/>
      <path id="path16833" d="m23.352-368.8c2.2518 79.554 1.9997 82.603 1.9997 82.603" stroke="#a0892c" stroke-width="2.4428px" fill="#a0892c"/>
      <path id="path16835" d="m14.739-370.06c-30.951 90.499-33.131 93.807-33.131 93.807" stroke="#decd87" stroke-width="4.5869px" fill="#decd87"/>
      <path id="path16837" d="m28.744-366.31c-16.512 97.828-17.446 101.5-17.446 101.5" stroke="#decd87" stroke-width="2.6075px" fill="#decd87"/>
      <path id="path16839" d="m21.484-368.71c-17.664 79.82-18.915 82.78-18.915 82.78" stroke="#decd87" stroke-width="3.2481px" fill="#decd87"/>
      <path id="path16841" d="m10.428-372.39c-25.079 63.062-27.363 65.285-27.363 65.285" stroke="#decd87" stroke-width="4.4243px" fill="#decd87"/>
      <path id="path16843" d="m17.886-366.77c-22.705 79.592-24.545 82.488-24.545 82.488" stroke="#decd87" stroke-width="4.2298px" fill="#decd87"/>
      <path id="path16845" d="m25.436-366.7c-14.363 78.28-15.244 81.209-15.244 81.209" stroke="#decd87" stroke-width="2.4428px" fill="#decd87"/>
      <path id="path16847" d="m11.997-367.76c-8.8064 75.504-10.141 78.531-10.141 78.531" stroke="#e9ddaf" stroke-width="4.0524px" fill="#e9ddaf"/>
      <path id="path16849" d="m26.389-368.54c6.837 77.291 6.7924 80.275 6.7924 80.275" stroke="#e9ddaf" stroke-width="2.3036px" fill="#e9ddaf"/>
      <path id="path16851" d="m18.821-368.48c1.5331 64.135 1.0143 66.662 1.0143 66.662" stroke="#e9ddaf" stroke-width="2.8696px" fill="#e9ddaf"/>
      <path id="path16853" d="m7.2914-368.41c-9.5263 53.51-11.214 55.754-11.214 55.754" stroke="#e9ddaf" stroke-width="3.9087px" fill="#e9ddaf"/>
      <path id="path16855" d="m15.799-366.12c-3.386 65.251-4.4881 67.884-4.4881 67.884" stroke="#e9ddaf" stroke-width="3.7369px" fill="#e9ddaf"/>
      <path id="path16857" d="m23.103-367.99c4.3607 62.14 4.1919 64.554 4.1919 64.554" stroke="#e9ddaf" stroke-width="2.1581px" fill="#e9ddaf"/>
      <path id="path16859" d="m13.99-363.62c-12.399 93.713-13.883 97.272-13.883 97.272" stroke="#c8ab37" stroke-width="4.5869px" fill="#c8ab37"/>
      <path id="path16861" d="m28.498-361.69c3.2474 99.136 3.0613 102.9 3.0613 102.9" stroke="#c8ab37" stroke-width="2.6075px" fill="#c8ab37"/>
      <path id="path16863" d="m20.886-363.14c-1.4691 81.424-2.1094 84.516-2.1094 84.516" stroke="#c8ab37" stroke-width="3.2481px" fill="#c8ab37"/>
      <path id="path16865" d="m9.2885-365.39c-12.091 65.75-13.893 68.247-13.893 68.247" stroke="#c8ab37" stroke-width="4.4243px" fill="#c8ab37"/>
      <path id="path16867" d="m17.736-360.77c-6.4679 81.841-7.6996 84.949-7.6996 84.949" stroke="#c8ab37" stroke-width="4.2298px" fill="#c8ab37"/>
      <path id="path16869" d="m25.168-361.66c1.4678 79.473 1.1848 82.491 1.1848 82.491" stroke="#c8ab37" stroke-width="2.4428px" fill="#c8ab37"/>
      <path id="path16871" d="m15.225-362.52c-4.6072 94.96-5.7855 98.649-5.7855 98.649" stroke="#a0892c" stroke-width="4.5869px" fill="#a0892c"/>
      <path id="path16873" d="m29.758-361.77c11.34 99.122 11.464 102.91 11.464 102.91" stroke="#a0892c" stroke-width="2.6075px" fill="#a0892c"/>
      <path id="path16875" d="m22.096-362.61c5.2158 81.749 4.8348 84.902 4.8348 84.902" stroke="#a0892c" stroke-width="3.2481px" fill="#a0892c"/>
      <path id="path16877" d="m10.422-363.91c-6.5925 66.902-8.1734 69.552-8.1734 69.552" stroke="#a0892c" stroke-width="4.4243px" fill="#a0892c"/>
      <path id="path16879" d="m19.17-359.96c0.29736 82.575-0.66851 85.791-0.66851 85.791" stroke="#a0892c" stroke-width="4.2298px" fill="#a0892c"/>
      <path id="path16881" d="m26.461-361.47c7.966 79.554 7.9328 82.603 7.9328 82.603" stroke="#a0892c" stroke-width="2.4428px" fill="#a0892c"/>
      <path id="path16883" d="m17.758-362.72c-24.451 90.499-26.393 93.807-26.393 93.807" stroke="#decd87" stroke-width="4.5869px" fill="#decd87"/>
      <path id="path16885" d="m32.032-358.97c-9.4853 97.828-10.155 101.5-10.155 101.5" stroke="#decd87" stroke-width="2.6075px" fill="#decd87"/>
      <path id="path16887" d="m24.599-361.37c-11.931 79.821-12.969 82.777-12.969 82.777" stroke="#decd87" stroke-width="3.2481px" fill="#decd87"/>
      <path id="path16889" d="m13.279-365.06c-20.549 63.062-22.674 65.285-22.674 65.285" stroke="#decd87" stroke-width="4.4243px" fill="#decd87"/>
      <path id="path16891" d="m21.14-359.44c-16.988 79.6-18.62 82.49-18.62 82.49" stroke="#decd87" stroke-width="4.2298px" fill="#decd87"/>
      <path id="path16893" d="m28.695-359.36c-8.7405 78.28-9.4115 81.209-9.4115 81.209" stroke="#decd87" stroke-width="2.4428px" fill="#decd87"/>
      <path id="path16895" d="m15.888-363.26c-3.3832 75.504-4.4999 78.531-4.4999 78.531" stroke="#e9ddaf" stroke-width="4.0524px" fill="#e9ddaf"/>
      <path id="path16897" d="m29.517-361.2c12.389 77.291 12.558 80.275 12.558 80.275" stroke="#e9ddaf" stroke-width="2.3036px" fill="#e9ddaf"/>
      <path id="path16899" d="m21.953-361.14c6.1396 64.135 5.8024 66.662 5.8024 66.662" stroke="#e9ddaf" stroke-width="2.8696px" fill="#e9ddaf"/>
      <path id="path16901" d="m10.9-363.67c-5.6829 53.509-7.2092 55.754-7.2092 55.754" stroke="#e9ddaf" stroke-width="3.9087px" fill="#e9ddaf"/>
      <path id="path16903" d="m20.751-361.85c1.3007 65.251 0.38768 67.884 0.38768 67.884" stroke="#e9ddaf" stroke-width="3.7369px" fill="#e9ddaf"/>
      <path id="path16905" d="m26.27-360.65c8.8241 62.14 8.8286 64.554 8.8286 64.554" stroke="#e9ddaf" stroke-width="2.1581px" fill="#e9ddaf"/>
      <path id="path16907" fill="#decd87" d="m-290.25-600.74s-1.1581-2.5732 1.0627 1.211c1.1028 1.8792 1.4741 1.9851 4.0079 2.2867 66.274 7.8884 255.16 72.162 264.76 73.193 14.053 11.679 29.407 10.767 33.978 24.558 6.0627 18.293-2.4928 91.614-4.803 118.82-0.10011 1.1777-0.18489 1.3237-0.25305 2.3164-0.35914 5.2328-5.0936 4.194-5.0936 4.194-4.6048 6.0726-3.7076 15.74-1.9752 14.902 8.5101-4.1174 13.407-2.8392 15.631-2.3809 5.5652 0.1993 8.7722 1.645 11.272 10.14 3.5373-4.2448 2.7934-13.375 2.7934-13.375l-3.7056-9.4784 1.4896-131.89c-2.0955-12.908-24.418-16.312-36.646-24.153-83.551-13.012-182.49-63.068-273.26-76.078-3.8137-0.5466-6.9488 0.3007-9.6248 1.219z"/>
      <path id="path16909" d="m11.036-370.96c-19.13 93.713-20.87 97.272-20.87 97.272" stroke="#c8ab37" stroke-width="4.5869px" fill="#c8ab37"/>
      <path id="path16911" d="m25.405-369.03c-3.8733 99.136-4.3297 102.9-4.3297 102.9" stroke="#c8ab37" stroke-width="2.6075px" fill="#c8ab37"/>
      <path id="path16913" d="m17.898-370.48c-7.3175 81.424-8.1798 84.516-8.1798 84.516" stroke="#c8ab37" stroke-width="3.2481px" fill="#c8ab37"/>
      <path id="path16915" d="m6.4616-372.72c-16.813 65.75-18.795 68.247-18.795 68.247" stroke="#c8ab37" stroke-width="4.4243px" fill="#c8ab37"/>
      <path id="path16917" d="m14.577-368.1c-12.346 81.84-13.801 84.94-13.801 84.94" stroke="#c8ab37" stroke-width="4.2298px" fill="#c8ab37"/>
      <path id="path16919" d="m22.073-369c-4.2406 79.473-4.7403 82.491-4.7403 82.491" stroke="#c8ab37" stroke-width="2.4428px" fill="#c8ab37"/>
      <path id="path16921" d="m12.192-369.86c-11.428 94.961-12.871 98.649-12.871 98.649" stroke="#a0892c" stroke-width="4.5869px" fill="#a0892c"/>
      <path id="path16923" d="m26.671-369.11c4.2206 99.122 4.0726 102.91 4.0726 102.91" stroke="#a0892c" stroke-width="2.6075px" fill="#a0892c"/>
      <path id="path16925" d="m19.07-369.94c-0.65594 81.749-1.2634 84.902-1.2634 84.902" stroke="#a0892c" stroke-width="3.2481px" fill="#a0892c"/>
      <path id="path16927" d="m7.4888-371.24c-11.398 66.902-13.169 69.552-13.169 69.552" stroke="#a0892c" stroke-width="4.4243px" fill="#a0892c"/>
      <path id="path16929" d="m15.954-367.3c-5.6339 82.575-6.8307 85.792-6.8307 85.792" stroke="#a0892c" stroke-width="4.2298px" fill="#a0892c"/>
      <path id="path16931" d="m23.352-368.8c2.2518 79.555 1.9997 82.603 1.9997 82.603" stroke="#a0892c" stroke-width="2.4428px" fill="#a0892c"/>
      <path id="path16933" d="m14.739-370.06c-30.951 90.5-33.131 93.807-33.131 93.807" stroke="#decd87" stroke-width="4.5869px" fill="#decd87"/>
      <path id="path16935" d="m28.744-366.31c-16.512 97.828-17.446 101.5-17.446 101.5" stroke="#decd87" stroke-width="2.6075px" fill="#decd87"/>
      <path id="path16937" d="m21.484-368.71c-17.664 79.82-18.915 82.78-18.915 82.78" stroke="#decd87" stroke-width="3.2481px" fill="#decd87"/>
      <path id="path16939" d="m10.428-372.39c-25.079 63.062-27.363 65.285-27.363 65.285" stroke="#decd87" stroke-width="4.4243px" fill="#decd87"/>
      <path id="path16941" d="m17.886-366.77c-22.705 79.592-24.545 82.489-24.545 82.489" stroke="#decd87" stroke-width="4.2298px" fill="#decd87"/>
      <path id="path16943" d="m25.436-366.7c-14.363 78.28-15.244 81.209-15.244 81.209" stroke="#decd87" stroke-width="2.4428px" fill="#decd87"/>
      <path id="path16945" d="m11.997-367.76c-8.8064 75.504-10.141 78.531-10.141 78.531" stroke="#e9ddaf" stroke-width="4.0524px" fill="#e9ddaf"/>
      <path id="path16947" d="m26.389-368.54c6.837 77.291 6.7924 80.275 6.7924 80.275" stroke="#e9ddaf" stroke-width="2.3036px" fill="#e9ddaf"/>
      <path id="path16949" d="m18.821-368.48c1.5331 64.135 1.0143 66.662 1.0143 66.662" stroke="#e9ddaf" stroke-width="2.8696px" fill="#e9ddaf"/>
      <path id="path16951" d="m7.2914-368.41c-9.5263 53.51-11.214 55.754-11.214 55.754" stroke="#e9ddaf" stroke-width="3.9087px" fill="#e9ddaf"/>
      <path id="path16953" d="m15.799-366.12c-3.386 65.251-4.4881 67.884-4.4881 67.884" stroke="#e9ddaf" stroke-width="3.7369px" fill="#e9ddaf"/>
      <path id="path16955" d="m23.103-367.99c4.3607 62.14 4.1919 64.554 4.1919 64.554" stroke="#e9ddaf" stroke-width="2.1581px" fill="#e9ddaf"/>
      <path id="path16957" d="m13.99-363.62c-12.399 93.713-13.883 97.272-13.883 97.272" stroke="#c8ab37" stroke-width="4.5869px" fill="#c8ab37"/>
      <path id="path16959" d="m28.498-361.69c3.2474 99.136 3.0613 102.9 3.0613 102.9" stroke="#c8ab37" stroke-width="2.6075px" fill="#c8ab37"/>
      <path id="path16961" d="m20.886-363.14c-1.4691 81.424-2.1094 84.516-2.1094 84.516" stroke="#c8ab37" stroke-width="3.2481px" fill="#c8ab37"/>
      <path id="path16963" d="m9.2885-365.39c-12.091 65.75-13.893 68.247-13.893 68.247" stroke="#c8ab37" stroke-width="4.4243px" fill="#c8ab37"/>
      <path id="path16965" d="m17.736-360.77c-6.4679 81.841-7.6996 84.949-7.6996 84.949" stroke="#c8ab37" stroke-width="4.2298px" fill="#c8ab37"/>
      <path id="path16967" d="m25.168-361.66c1.4678 79.473 1.1848 82.491 1.1848 82.491" stroke="#c8ab37" stroke-width="2.4428px" fill="#c8ab37"/>
      <path id="path16969" d="m15.225-362.52c-4.6072 94.961-5.7855 98.649-5.7855 98.649" stroke="#a0892c" stroke-width="4.5869px" fill="#a0892c"/>
      <path id="path16971" d="m29.758-361.77c11.34 99.122 11.464 102.91 11.464 102.91" stroke="#a0892c" stroke-width="2.6075px" fill="#a0892c"/>
      <path id="path16973" d="m22.096-362.61c5.2158 81.749 4.8348 84.902 4.8348 84.902" stroke="#a0892c" stroke-width="3.2481px" fill="#a0892c"/>
      <path id="path16975" d="m10.422-363.91c-6.5925 66.902-8.1734 69.552-8.1734 69.552" stroke="#a0892c" stroke-width="4.4243px" fill="#a0892c"/>
      <path id="path16977" d="m19.17-359.96c0.29736 82.575-0.66851 85.792-0.66851 85.792" stroke="#a0892c" stroke-width="4.2298px" fill="#a0892c"/>
      <path id="path16979" d="m26.461-361.47c7.966 79.555 7.9328 82.603 7.9328 82.603" stroke="#a0892c" stroke-width="2.4428px" fill="#a0892c"/>
      <path id="path16981" d="m17.758-362.72c-24.451 90.5-26.393 93.807-26.393 93.807" stroke="#decd87" stroke-width="4.5869px" fill="#decd87"/>
      <path id="path16983" d="m32.032-358.97c-9.4853 97.828-10.155 101.5-10.155 101.5" stroke="#decd87" stroke-width="2.6075px" fill="#decd87"/>
      <path id="path16985" d="m24.599-361.37c-11.931 79.821-12.969 82.777-12.969 82.777" stroke="#decd87" stroke-width="3.2481px" fill="#decd87"/>
      <path id="path16987" d="m13.279-365.06c-20.549 63.062-22.674 65.285-22.674 65.285" stroke="#decd87" stroke-width="4.4243px" fill="#decd87"/>
      <path id="path16989" d="m21.14-359.44c-16.988 79.6-18.62 82.49-18.62 82.49" stroke="#decd87" stroke-width="4.2298px" fill="#decd87"/>
      <path id="path16991" d="m28.695-359.36c-8.7405 78.28-9.4115 81.209-9.4115 81.209" stroke="#decd87" stroke-width="2.4428px" fill="#decd87"/>
      <path id="path16993" d="m15.888-363.26c-3.3832 75.504-4.4999 78.531-4.4999 78.531" stroke="#e9ddaf" stroke-width="4.0524px" fill="#e9ddaf"/>
      <path id="path16995" d="m29.517-361.2c12.389 77.291 12.558 80.275 12.558 80.275" stroke="#e9ddaf" stroke-width="2.3036px" fill="#e9ddaf"/>
      <path id="path16997" d="m21.953-361.14c6.1396 64.135 5.8024 66.662 5.8024 66.662" stroke="#e9ddaf" stroke-width="2.8696px" fill="#e9ddaf"/>
      <path id="path16999" d="m10.9-363.67c-5.6829 53.51-7.2092 55.754-7.2092 55.754" stroke="#e9ddaf" stroke-width="3.9087px" fill="#e9ddaf"/>
      <path id="path17001" d="m20.751-361.85c1.3007 65.251 0.38768 67.884 0.38768 67.884" stroke="#e9ddaf" stroke-width="3.7369px" fill="#e9ddaf"/>
      <path id="path17003" d="m26.27-360.65c8.8241 62.14 8.8286 64.554 8.8286 64.554" stroke="#e9ddaf" stroke-width="2.1581px" fill="#e9ddaf"/>
    </g>
  </g>
  <metadata>
    <rdf:RDF>
      <cc:Work>
        <dc:format>image/svg+xml</dc:format>
        <dc:type rdf:resource="http://purl.org/dc/dcmitype/StillImage"/>
        <cc:license rdf:resource="http://creativecommons.org/licenses/publicdomain/"/>
        <dc:publisher>
          <cc:Agent rdf:about="http://openclipart.org/">
            <dc:title>Openclipart</dc:title>
          </cc:Agent>
        </dc:publisher>
        <dc:title>Graduate 4</dc:title>
        <dc:date>2010-08-02T22:17:43</dc:date>
        <dc:description>Graduate 4</dc:description>
        <dc:source>http://openclipart.org/detail/76387/graduate-4-by-inky2010</dc:source>
        <dc:creator>
          <cc:Agent>
            <dc:title>inky2010</dc:title>
          </cc:Agent>
        </dc:creator>
        <dc:subject>
          <rdf:Bag>
            <rdf:li>Graduate</rdf:li>
            <rdf:li>clip art</rdf:li>
            <rdf:li>clipart</rdf:li>
            <rdf:li>gloss</rdf:li>
            <rdf:li>glossy</rdf:li>
            <rdf:li>icon</rdf:li>
            <rdf:li>inky2010</rdf:li>
            <rdf:li>school</rdf:li>
          </rdf:Bag>
        </dc:subject>
      </cc:Work>
      <cc:License rdf:about="http://creativecommons.org/licenses/publicdomain/">
        <cc:permits rdf:resource="http://creativecommons.org/ns#Reproduction"/>
        <cc:permits rdf:resource="http://creativecommons.org/ns#Distribution"/>
        <cc:permits rdf:resource="http://creativecommons.org/ns#DerivativeWorks"/>
      </cc:License>
    </rdf:RDF>
  </metadata>
</svg>
